<?xml version="1.0" encoding="UTF-8"?><svg xmlns="http://www.w3.org/2000/svg" viewBox="0 0 440.83 280.43"><defs><style>.cls-1{stroke-width:5.11px;}.cls-1,.cls-2{fill:none;stroke:#ec8e39;}.cls-1,.cls-2,.cls-3{stroke-miterlimit:10;}.cls-4{fill:#ec8e39;}.cls-2,.cls-3{stroke-width:5px;}.cls-3{fill:#1e1e1e;stroke:#1e1e1e;}</style></defs><g id="Layer_2"><rect class="cls-3" x="2.5" y="2.5" width="435.83" height="275.43"/></g><g id="Layer_1"><path class="cls-4" d="m217.66,182.76c12.37-4.63,19.05-7.74,19.24-12.98.21-5.68-.68-34.11-.68-34.11,0,0-.24-28.44-.68-34.11-.41-5.24-7.2-8.08-19.75-12.21-12.37,4.63-19.05,7.74-19.25,12.98-.21,5.68.68,34.11.68,34.11,0,0,.24,28.44.68,34.11.41,5.24,7.21,8.07,19.75,12.21Z"/><path class="cls-4" d="m362.78,60.56c-3.5-1.1-6.79-1.92-9.86-2.4-3.02-.43-5.83-.53-8.46-.27-2.57.32-4.97,1.03-7.22,2.17-2.15,1.23-4.25,2.83-6.06,5.06-.48.61-1.09,1.38-1.79,2.27-.7.9-1.51,1.93-2.32,3.14-.82,1.2-1.72,2.51-2.69,3.92-.89,1.46-1.84,3.01-2.83,4.64-3.86,6.58-7.67,14.82-10.31,23.1-2.69,8.26-4.16,16.53-4.79,22.68-.15,1.54-.3,2.94-.39,4.18-.05,1.25-.1,2.33-.13,3.22-.06,1.78-.1,2.78-.1,2.78,0,0,0,1,.02,2.78.01.89.03,1.97.04,3.22.03,1.25.16,2.65.26,4.19.44,6.17,1.68,14.47,4.13,22.82,2.4,8.36,5.99,16.71,9.67,23.4.95,1.66,1.86,3.24,2.71,4.72.93,1.43,1.8,2.77,2.59,3.99.78,1.23,1.55,2.29,2.24,3.2.69.92,1.27,1.7,1.74,2.32.85,1.16,1.84,2.12,2.83,2.99,1,.86,2.03,1.61,3.1,2.24,2.22,1.2,4.6,1.97,7.16,2.36,2.63.33,5.44.29,8.47-.06,3.08-.41,6.4-1.15,9.92-2.16.53-3.72,1.07-6.94,1.49-9.79.48-2.91.83-5.42.93-7.64.16-2.28.07-4.27-.37-6.06-.18-.93-.45-1.81-.82-2.65-.37-.85-.87-1.63-1.39-2.47-.3-.44-.67-.99-1.11-1.63-.45-.64-.97-1.36-1.47-2.21-.53-.83-1.1-1.75-1.72-2.73-.57-1.01-1.17-2.08-1.8-3.21-2.46-4.53-4.88-10.12-6.5-15.64-1.66-5.51-2.5-10.91-2.83-14.88-.07-.99-.18-1.9-.21-2.7-.02-.8-.03-1.49-.04-2.06-.03-1.14-.05-1.78-.05-1.78,0,0,.04-.64.1-1.77.03-.57.06-1.26.1-2.06.06-.8.19-1.7.29-2.69.44-3.96,1.44-9.33,3.26-14.8,1.78-5.48,4.35-11,6.94-15.48.66-1.11,1.3-2.17,1.89-3.16.65-.96,1.25-1.86,1.8-2.69.52-.84,1.07-1.55,1.53-2.18.45-.63.84-1.18,1.15-1.61,1.13-1.61,1.96-3.2,2.35-5.06.49-1.78.63-3.77.53-6.06-.04-2.22-.32-4.75-.73-7.67-.35-2.86-.81-6.09-1.24-9.82Z"/><path class="cls-2" d="m144.65,132.94c0-38.62,31.12-69.87,69.59-69.87"/><path class="cls-2" d="m292.35,134.64c0-39.56-35.82-71.57-80.09-71.57"/><path class="cls-2" d="m292.75,135.36c0-58.24,32.27-105.37,72.14-105.37"/><path class="cls-1" d="m355.02,151.31c45.88-39.1,69.66-86.41,53.17-105.76"/><path class="cls-4" d="m258.12,102.35c3.22,0,3.22-5,0-5s-3.22,5,0,5h0Z"/><path class="cls-4" d="m179.3,100.64c3.22,0,3.22-5,0-5s-3.22,5,0,5h0Z"/><path class="cls-2" d="m363,27.42c0,18.6-.41,33.66-.92,33.66"/><path class="cls-2" d="m361.65,60.65c0-7.77,21.72-14.06,48.57-14.06"/><path class="cls-4" d="m74.48,58.06c-.43,3.74-.89,6.97-1.24,9.82-.41,2.92-.69,5.44-.73,7.67-.1,2.28.04,4.28.53,6.06.39,1.86,1.22,3.45,2.35,5.06.31.43.7.97,1.15,1.61.46.63,1.01,1.34,1.53,2.18.55.82,1.15,1.72,1.8,2.69.59.99,1.23,2.05,1.89,3.16,2.58,4.47,5.16,10,6.94,15.48,1.82,5.47,2.81,10.84,3.26,14.8.1.99.23,1.89.29,2.69.04.8.07,1.49.1,2.06.06,1.14.1,1.77.1,1.77,0,0-.02.64-.05,1.78-.01.57-.03,1.26-.04,2.06-.02.8-.14,1.7-.21,2.7-.33,3.97-1.16,9.36-2.82,14.88-1.62,5.52-4.04,11.11-6.5,15.64-.63,1.13-1.24,2.2-1.8,3.21-.62.98-1.2,1.89-1.72,2.73-.5.85-1.02,1.58-1.47,2.21-.44.64-.81,1.19-1.11,1.63-.52.84-1.02,1.62-1.39,2.47-.37.84-.64,1.72-.83,2.65-.44,1.79-.53,3.78-.37,6.06.09,2.22.44,4.74.93,7.64.42,2.85.96,6.07,1.49,9.79,3.52,1.01,6.84,1.75,9.92,2.16,3.03.35,5.84.39,8.47.06,2.56-.39,4.94-1.15,7.16-2.36,1.07-.63,2.11-1.38,3.1-2.24.99-.87,1.98-1.82,2.83-2.99.47-.62,1.05-1.41,1.74-2.32.68-.92,1.46-1.97,2.24-3.2.79-1.22,1.66-2.56,2.59-3.99.85-1.48,1.76-3.06,2.71-4.72,3.68-6.69,7.27-15.04,9.67-23.4,2.46-8.34,3.69-16.65,4.13-22.82.1-1.54.23-2.95.26-4.19.02-1.25.03-2.33.04-3.22.02-1.78.02-2.78.02-2.78,0,0-.04-1-.1-2.78-.04-.89-.08-1.97-.13-3.22-.08-1.24-.24-2.64-.38-4.18-.62-6.15-2.09-14.41-4.78-22.68-2.64-8.28-6.45-16.52-10.31-23.1-.99-1.63-1.94-3.18-2.83-4.64-.97-1.41-1.87-2.72-2.69-3.92-.81-1.21-1.62-2.24-2.32-3.14-.71-.9-1.31-1.66-1.79-2.27-1.81-2.24-3.91-3.84-6.06-5.06-2.25-1.14-4.64-1.85-7.22-2.17-2.64-.26-5.45-.15-8.46.27-3.07.49-6.37,1.31-9.86,2.4Z"/><path class="cls-2" d="m144.51,132.85c0-58.24-32.27-105.37-72.14-105.37"/><path class="cls-1" d="m82.25,148.81C36.36,109.71,12.59,62.4,29.08,43.05"/><path class="cls-2" d="m74.27,24.92c0,18.6.41,33.66.92,33.66"/><path class="cls-2" d="m75.62,58.15c0-7.77-21.72-14.06-48.57-14.06"/><path class="cls-4" d="m89.41,197.84c3.02,3,6.04,5.72,9.06,7.93,2.99,2.11,6.04,3.92,9.15,5.2,3.07,1.2,6.31,2.1,9.66,2.38,3.32.25,6.96.16,10.71-.64,4.16-.77,12.26-2.67,21.71-5.17,9.44-2.49,20.14-5.53,30.03-7.84,2.45-.54,4.88-1.07,7.24-1.59,2.33-.43,4.6-.86,6.78-1.27,2.14-.31,4.2-.62,6.14-.9.98-.17,1.89-.23,2.78-.31.89-.08,1.74-.16,2.56-.24.82-.08,1.6-.16,2.35-.23.74-.05,1.42-.05,2.07-.08,1.29-.05,2.41-.09,3.33-.12.92-.04,1.64-.07,2.13-.04.49.02.75.02.75.02,0,0,1.04.04,2.89.11.46.02.98.03,1.54.05.28,0,.57.02.87.03.31.03.63.06.96.09,1.33.12,2.83.26,4.49.42,6.65.71,15.86,2.28,25.87,4.64,10,2.33,20.79,5.27,30.25,7.67,9.45,2.43,17.62,4.2,21.73,4.95.95.18,1.87.33,2.78.45.93.1,1.84.17,2.73.2,1.79.08,3.5.04,5.16-.1,3.36-.34,6.56-1.22,9.61-2.44,3.1-1.32,6.12-3.11,9.1-5.24,3.01-2.23,6.02-4.94,9.04-7.94-2.84-3.04-5.45-5.84-7.97-8.54-2.39-2.62-4.59-4.82-6.83-6.7-2.27-1.99-4.56-3.53-7.12-4.82-1.29-.67-2.64-1.26-4.07-1.75-.72-.25-1.45-.48-2.22-.68-.77-.23-1.57-.45-2.39-.64-3.57-.81-10.75-2.43-19.84-4.8-9.09-2.33-20.1-5.32-31.16-7.85-2.72-.66-5.55-1.21-8.25-1.79-2.69-.6-5.43-1.05-8.03-1.51-1.31-.22-2.59-.45-3.83-.66-1.28-.17-2.52-.34-3.73-.51-2.43-.31-4.66-.68-6.83-.82-2.14-.18-4.09-.35-5.81-.5-.43-.04-.85-.07-1.25-.1-.41-.01-.81-.03-1.18-.04-.76-.02-1.45-.04-2.08-.06-2.51-.07-3.92-.11-3.92-.11,0,0-.35-.01-1.02-.03-.66-.04-1.65-.02-2.91.02-1.26.04-2.79.08-4.56.13-.88.03-1.83.05-2.82.1-.98.08-2,.17-3.08.26-1.08.09-2.2.19-3.37.3-1.17.1-2.38.2-3.59.39-2.43.34-5.02.68-7.69,1.08-2.62.48-5.35.97-8.14,1.48-2.73.59-5.52,1.19-8.34,1.8-11.16,2.57-22.21,5.7-31.28,8.12-4.51,1.19-8.61,2.29-11.95,3.1-3.39.88-6.04,1.46-7.81,1.89-3.3.85-6.05,1.75-8.62,3.13-2.55,1.34-4.8,2.85-7.06,4.86-2.23,1.92-4.41,4.09-6.79,6.72-2.51,2.7-5.11,5.5-7.95,8.55Z"/><path class="cls-4" d="m187.63,183.13c-12.61-3.58-19.79-5.02-22.86-.9-1.65,2.21-6.28,9.27-10.22,16.41-1.97,3.55-3.75,7.1-5,9.78-.63,1.33-1.13,2.46-1.47,3.24-.34.78-.54,1.22-.54,1.22,0,0-.2.45-.54,1.24-.35.79-.85,1.93-1.41,3.35-1.14,2.82-2.59,6.72-3.83,10.98-1.25,4.25-2.26,8.86-2.86,12.88-.6,4.02-.8,7.41-.81,9.12-.03,3.14,1.76,5.71,5.1,7.81,1.69,1.05,3.78,1.99,6.23,2.83,2.47.84,5.34,1.58,8.53,2.2,2.98-1.42,5.63-2.55,7.94-3.53,2.34-.99,4.3-1.81,5.91-2.58,3.25-1.54,4.98-2.83,5.24-4.59.13-.95.31-2.87.68-5.27.39-2.4.99-5.28,1.78-8.06.77-2.78,1.71-5.46,2.46-7.44.37-.99.7-1.8.94-2.36.23-.57.36-.88.36-.88,0,0,.15-.32.41-.88.26-.56.64-1.38,1.13-2.36.97-1.98,2.37-4.66,3.99-7.49,3.19-5.65,7.32-11.96,8.59-14.19,2.32-4.08-1.72-10.13-9.74-20.51Z"/><path class="cls-4" d="m243.67,182.37c-8.02,10.38-12.07,16.42-9.74,20.5,1.27,2.23,5.4,8.54,8.59,14.19,1.62,2.83,3.02,5.51,3.99,7.49.5.99.87,1.8,1.13,2.36.27.56.41.88.41.88,0,0,.13.32.36.88.23.56.57,1.38.94,2.36.75,1.97,1.69,4.65,2.46,7.44.78,2.79,1.39,5.67,1.78,8.06.37,2.4.55,4.32.68,5.27.26,1.76,1.99,3.04,5.24,4.59,1.6.77,3.57,1.59,5.9,2.58,2.31.98,4.95,2.12,7.94,3.53,3.19-.62,6.06-1.36,8.53-2.2,2.44-.84,4.54-1.78,6.23-2.83,3.34-2.1,5.14-4.66,5.11-7.81,0-1.7-.21-5.1-.81-9.12-.6-4.01-1.62-8.63-2.86-12.88-1.24-4.26-2.68-8.16-3.83-10.98-.56-1.42-1.06-2.56-1.41-3.35-.35-.79-.54-1.24-.54-1.24,0,0-.19-.44-.54-1.22-.34-.78-.84-1.91-1.47-3.24-1.25-2.68-3.03-6.23-5-9.78-3.94-7.15-8.58-14.2-10.22-16.41-3.07-4.12-10.25-2.68-22.86.9Z"/></g></svg>